<svg width="277" height="281" viewBox="0 0 277 281" fill="none" xmlns="http://www.w3.org/2000/svg">
<path d="M107.892 169.097C99.7758 160.98 95.2165 149.972 95.2165 138.494C95.2165 127.016 99.7758 116.008 107.892 107.891M169.109 107.891C177.224 116.008 181.784 127.016 181.784 138.494C181.784 149.972 177.224 160.98 169.109 169.097M83.4116 193.588C76.1773 186.354 70.4386 177.765 66.5234 168.313C62.6082 158.861 60.5931 148.731 60.5931 138.5C60.5931 128.269 62.6082 118.138 66.5234 108.686C70.4386 99.234 76.1773 90.6456 83.4116 83.4113M193.588 83.4113C200.823 90.6456 206.561 99.234 210.477 108.686C214.392 118.138 216.407 128.269 216.407 138.5C216.407 148.731 214.392 158.861 210.477 168.313C206.561 177.765 200.823 186.354 193.588 193.588M58.9318 218.068C14.9811 174.117 14.9811 102.882 58.9318 58.9199M218.068 58.9199C262.019 102.871 262.019 174.117 218.068 218.08M138.5 138.5H138.592V138.58H138.5V138.5ZM142.828 138.5C142.828 139.648 142.372 140.748 141.56 141.56C140.749 142.372 139.648 142.828 138.5 142.828C137.352 142.828 136.251 142.372 135.44 141.56C134.628 140.748 134.172 139.648 134.172 138.5C134.172 137.352 134.628 136.251 135.44 135.439C136.251 134.628 137.352 134.172 138.5 134.172C139.648 134.172 140.749 134.628 141.56 135.439C142.372 136.251 142.828 137.352 142.828 138.5Z" stroke="#196B9A" stroke-opacity="0.3" stroke-width="17.3125" stroke-linecap="round" stroke-linejoin="round"/>
<path d="M191.5 181.333H85.5C81.9859 181.333 78.6157 180.245 76.1308 178.307C73.646 176.369 72.25 173.741 72.25 171V109C72.25 106.259 73.646 103.631 76.1308 101.693C78.6157 99.7553 81.9859 98.6666 85.5 98.6666H191.5C195.014 98.6666 198.384 99.7553 200.869 101.693C203.354 103.631 204.75 106.259 204.75 109V171C204.75 173.741 203.354 176.369 200.869 178.307C198.384 180.245 195.014 181.333 191.5 181.333Z" fill="#196B9A"/>
<path opacity="0.3" d="M110.333 153.833H167.333V242.5H110.333V153.833Z" fill="#C7C7C7"/>
<path d="M164.167 134.833H113.5C109.301 134.833 105.274 136.502 102.304 139.471C99.3351 142.44 97.667 146.467 97.667 150.667V258.333C97.667 262.533 99.3351 266.56 102.304 269.529C105.274 272.499 109.301 274.167 113.5 274.167H164.167C168.366 274.167 172.394 272.499 175.363 269.529C178.332 266.56 180 262.533 180 258.333V150.667C180 146.467 178.332 142.44 175.363 139.471C172.394 136.502 168.366 134.833 164.167 134.833ZM138.834 267.833C133.577 267.833 129.334 263.59 129.334 258.333C129.334 253.077 133.577 248.833 138.834 248.833C144.09 248.833 148.334 253.077 148.334 258.333C148.334 263.59 144.09 267.833 138.834 267.833ZM167.334 242.5H110.334V153.833H167.334V242.5Z" fill="#FCB452"/>
</svg>
